<svg width="380" height="496" viewBox="0 0 380 496" fill="none" xmlns="http://www.w3.org/2000/svg">
<g id="santa_head">
<path id="Vector" d="M172.335 8.36358C201.73 -2.21467 233.975 -3.08354 263.44 7.62231C282.809 14.6218 300.759 26.6036 315.748 42.2978C329.005 55.6103 337.839 74.0751 341.785 93.664C346.875 118.405 345.731 144.095 343.655 169.182C343.146 173.411 343.649 177.658 344.02 181.869C344.65 187.556 345.058 193.279 345.916 198.93C346.87 199.106 347.823 199.301 348.771 199.519C356.875 200.972 364.173 206.312 369.56 213.275C375.259 220.615 378.585 230.112 379.565 239.827V248.844C378.394 261.446 372.907 273.519 364.173 281.363C357.346 287.615 348.601 291.151 339.846 290.829C330.44 290.799 321.192 286.381 314.376 278.987C314.768 283.526 315.642 287.986 316.245 292.494C318.369 305.594 319.376 318.955 318.925 332.285C318.375 346.819 315.742 361.243 311.193 374.829C298.815 411.06 276.617 442.965 248.122 464.195C230.458 477.458 210.523 486.591 189.866 491.476C165.767 497.163 140.736 497.175 116.547 492.168C94.6888 487.684 73.4976 479.129 53.8795 467.22C45.3416 461.916 36.8302 456.375 29.3198 449.266C17.657 438.335 8.72712 423.571 4.22512 407.05C0.321623 392.996 -0.562888 378.056 0.305733 363.406C1.93705 337.991 8.57882 313.413 16.5924 289.778C25.8294 262.394 37.3916 236.164 47.7356 209.326C48.6572 206.622 49.8807 204.028 50.5162 201.203C50.315 198.462 49.3881 195.831 49.2875 193.067C48.3023 180.562 51.8404 168.362 56.1729 157.079C57.015 154.776 58.4451 152.431 57.7565 149.812C56.1888 142.412 57.8466 134.719 60.4948 127.92C63.7998 119.493 68.4554 111.843 73.5665 104.734C75.2084 102.389 77.2052 100.378 78.6352 97.8382C81.8925 91.422 84.5249 84.5744 88.3065 78.5227C108.205 44.9773 138.687 20.3879 172.335 8.36358ZM155.233 78.8083C144.846 83.5293 134.725 88.9856 124.794 94.8549C111.637 103.039 97.5648 109.613 85.8013 120.447C86.9242 116.485 88.4125 112.688 89.8107 108.854C84.5302 114.851 80.0441 121.778 76.1988 129.063C73.8101 133.838 71.5432 139.051 71.5379 144.684C71.4744 147.351 72.7561 149.691 74.398 151.459C70.6163 160.196 66.9512 169.103 64.7637 178.563C63.1113 185.794 62.7193 194.045 66.3368 200.607C62.9524 211.629 58.5457 222.195 54.3615 232.84C48.35 247.635 42.2855 262.4 36.6342 277.383C28.3399 299.645 20.7713 322.448 16.7619 346.29C14.4049 360.958 13.388 376.111 15.6496 390.882C17.2332 401.539 20.6865 411.88 26.0307 420.812C31.396 429.92 38.6522 437.424 46.7134 443.305C65.0498 456.636 85.2028 466.704 106.267 472.78C129.073 479.372 152.987 481.122 176.297 477.379C198.823 473.709 220.782 464.754 239.865 450.469C255.384 438.967 268.916 424.02 279.684 406.813C290.526 389.266 299.302 369.58 302.808 348.302C305.345 333.172 304.959 317.588 303.084 302.392C300.218 278.987 294.758 255.923 294.366 232.178C293.884 226.722 294.588 221.271 294.519 215.809C289.44 210.189 283.778 205.267 279.075 199.197C273.805 192.86 269.25 185.812 264.435 179.031C264.054 177.755 263.116 176.801 262.476 175.696C246.533 150.869 232.688 124.165 214.606 101.223C205.189 89.4716 194.4 78.4741 181.212 72.7506C179.157 71.748 176.869 71.8574 174.703 72.1612C167.971 73.3035 161.562 76.0498 155.233 78.8083ZM335.811 215.554C330.498 216.964 325.631 220.451 322.209 225.324C318.051 231.108 315.901 238.709 316.192 246.195C316.452 255.273 320.467 264.192 326.992 269.411C332.241 273.671 339.068 275.335 345.355 273.713C353.183 271.83 359.846 265.182 362.976 256.804C367.695 244.682 364.846 229.024 355.577 220.798C350.116 215.761 342.643 213.737 335.811 215.554Z" fill="#CE000A"/>
<path id="Vector_2" d="M214.606 101.223C232.688 124.165 246.533 150.869 262.476 175.696C263.116 176.801 264.054 177.755 264.435 179.031C263.477 183.218 263.832 187.574 263.365 191.833C262.613 200.218 260.982 208.633 257.529 216.131C255.791 219.479 253.932 223.046 250.829 224.923C252.709 222.146 254.722 219.43 256.04 216.228C259.245 208.755 259.563 199.69 256.787 191.985C254.234 184.597 249.001 178.527 242.619 175.459C234.955 171.661 225.723 172.53 218.653 177.597C212.509 181.899 208.039 189.233 206.72 197.356C205.586 203.73 206.386 210.517 208.965 216.313C199.924 212.309 189.575 215.402 182.028 221.867C177.298 226.011 172.716 230.434 167.51 233.794C166.233 234.56 164.92 235.41 163.458 235.568C162.288 235.489 161.308 234.645 160.36 233.946C153.803 228.593 149.433 220.372 142.484 215.566C138.406 212.795 133.697 211.428 128.983 211.185C131.573 203.9 131.51 195.394 128.719 188.2C124.248 175.732 111.833 167.991 100.277 170.501C92.459 171.898 85.3829 177.737 81.633 185.721C80.3883 188.4 79.2549 191.287 79.2231 194.385C74.8853 181.182 73.3758 166.308 76.6543 152.583C80.4995 152.455 84.3607 152.23 88.1159 151.191C101.993 147.643 115.329 141.901 128.655 136.329C149.232 127.598 169.565 118.102 190.285 109.82C197.255 107.092 204.246 104.327 211.46 102.571C212.556 102.286 213.594 101.775 214.606 101.223ZM148.358 151.094C145.154 152.899 144.439 157.844 145.138 161.508C145.44 163.823 147.383 166.509 149.608 165.281C152.637 163.21 153.209 158.458 152.484 154.806C152.055 152.722 150.476 150.268 148.358 151.094ZM185.968 154.15C182.478 156.611 181.847 162.584 183.643 166.545C184.427 168.514 186.879 169.255 188.246 167.602C190.942 164.601 191.376 159.254 189.432 155.608C188.775 154.181 187.271 153.549 185.968 154.15Z" fill="#FFC2CA"/>
<path id="Vector_3" d="M148.358 151.094C150.477 150.268 152.055 152.722 152.484 154.807C153.21 158.458 152.638 163.21 149.608 165.281C147.383 166.509 145.44 163.823 145.138 161.508C144.439 157.844 145.154 152.899 148.358 151.094Z" fill="#AF0113"/>
<path id="Vector_4" d="M185.968 154.15C187.271 153.549 188.775 154.181 189.432 155.609C191.376 159.254 190.942 164.601 188.246 167.602C186.879 169.255 184.427 168.514 183.643 166.545C181.847 162.584 182.478 156.611 185.968 154.15Z" fill="#AF0112"/>
<path id="Vector_5" d="M100.277 170.501C111.834 167.991 124.248 175.732 128.719 188.2C131.51 195.394 131.573 203.9 128.983 211.185C124.037 210.93 119.1 211.544 114.19 212.145C106.452 212.972 98.1792 214.199 90.8807 210.347C85.1128 207.327 81.7072 200.759 79.2231 194.385C79.2549 191.287 80.3884 188.401 81.633 185.721C85.3829 177.737 92.459 171.898 100.277 170.501Z" fill="#CE000A"/>
<path id="Vector_6" d="M218.653 177.597C225.723 172.53 234.955 171.661 242.619 175.459C249.001 178.527 254.234 184.597 256.787 191.985C259.562 199.69 259.245 208.755 256.04 216.228C254.722 219.43 252.709 222.146 250.829 224.923C246.782 229.207 240.94 230.234 235.681 229.03C226.068 226.959 218.091 219.923 208.965 216.314C206.386 210.517 205.586 203.73 206.72 197.356C208.038 189.233 212.509 181.899 218.653 177.597Z" fill="#CE000A"/>
<path id="Vector_7" d="M335.811 215.554C342.643 213.737 350.116 215.761 355.577 220.797C364.846 229.024 367.695 244.682 362.976 256.804C359.846 265.182 353.183 271.83 345.355 273.713C339.068 275.335 332.241 273.671 326.992 269.411C320.467 264.192 316.452 255.273 316.192 246.195C315.901 238.709 318.052 231.108 322.209 225.324C325.631 220.451 330.498 216.964 335.811 215.554Z" fill="white"/>
<path id="mouth" d="M131 251C135.398 252.601 140.069 254.151 145.67 255.151C153.719 256.678 163.132 257.181 171.987 256.49C181.583 255.826 190.192 253.973 198 251.862C196.891 255.36 193.44 258.76 188.037 261.651C183.21 264.2 176.615 266.383 168.645 267.438C162.181 268.29 154.681 268.218 148.677 266.914C142.239 265.535 137.961 263.098 135.393 260.557C132.344 257.512 131.073 254.24 131 251Z" fill="#B10012"/>
</g>
</svg>
